<?xml version="1.0" encoding="UTF-8" standalone="no" ?>
<!DOCTYPE svg PUBLIC "-//W3C//DTD SVG 1.1//EN" "http://www.w3.org/Graphics/SVG/1.1/DTD/svg11.dtd">
<svg xmlns="http://www.w3.org/2000/svg" xmlns:xlink="http://www.w3.org/1999/xlink" version="1.1" width="1080" height="1080" viewBox="0 0 1080 1080" xml:space="preserve">
<desc>Created with Fabric.js 5.2.4</desc>
<defs>
</defs>
<g transform="matrix(1 0 0 1 540 540)" id="96adb851-1a9c-41b8-b072-ae6985c63e67"  >
<rect style="stroke: none; stroke-width: 1; stroke-dasharray: none; stroke-linecap: butt; stroke-dashoffset: 0; stroke-linejoin: miter; stroke-miterlimit: 4; fill: rgb(255,255,255); fill-rule: nonzero; opacity: 1; visibility: hidden;" vector-effect="non-scaling-stroke"  x="-540" y="-540" rx="0" ry="0" width="1080" height="1080" />
</g>
<g transform="matrix(1 0 0 1 540 540)" id="b8459e66-5d9c-4588-b22b-abc6820f440e"  >
</g>
<g transform="matrix(0.77 0 0 0.77 540 540)" id="cd0df7c0-cf6f-4a92-9f35-4e614793770d"  >
<path style="stroke: rgb(0,0,0); stroke-width: 0; stroke-dasharray: none; stroke-linecap: butt; stroke-dashoffset: 0; stroke-linejoin: miter; stroke-miterlimit: 4; fill: rgb(0,0,0); fill-rule: nonzero; opacity: 1;" vector-effect="non-scaling-stroke"  transform=" translate(-451.6, -196.06)" d="M 386.5 8.1 C 384.3 8.5 380.1 9.4 377.1 9.9 C 374.1 10.5 371.20000000000005 11.4 370.6 12 C 370.1 12.5 368.8 13 367.90000000000003 13 C 365.50000000000006 13 354.70000000000005 18.5 346.8 23.6 C 324.90000000000003 38.1 311 66.30000000000001 311 96.30000000000001 C 311 103.50000000000001 311.5 109.50000000000001 312.5 112.60000000000001 C 313.3 115.30000000000001 314 118.60000000000001 314 120.00000000000001 C 314 121.40000000000002 314.6 123.70000000000002 315.4 125.10000000000001 C 316.09999999999997 126.50000000000001 317 128.8 317.29999999999995 130.10000000000002 C 318.49999999999994 134.70000000000002 325.4 146.00000000000003 331.19999999999993 153.00000000000003 C 337.5999999999999 160.40000000000003 350.3999999999999 169.70000000000002 360.49999999999994 174.20000000000002 C 389.49999999999994 187.10000000000002 423.09999999999997 186.50000000000003 451.9 172.8 C 468.9 164.8 483.7 150.8 490.4 136.5 C 496.29999999999995 124.1 498.4 114.1 499.59999999999997 93.9 C 500.09999999999997 84.5 499.99999999999994 82.10000000000001 498.9 81.4 C 498.09999999999997 80.9 476.79999999999995 80.7 451.5 80.80000000000001 C 416.4 81.00000000000001 405.4 81.30000000000001 404.8 82.30000000000001 C 403.7 84.00000000000001 403.8 117.20000000000002 404.90000000000003 118.9 C 405.6 120 407.8 120.2 415.20000000000005 119.80000000000001 C 431.6 118.9 434.50000000000006 121.10000000000001 427.1 128.8 C 421.8 134.20000000000002 411.6 137.60000000000002 403.20000000000005 136.60000000000002 C 391.30000000000007 135.20000000000002 382.80000000000007 128.8 377.30000000000007 117.10000000000002 C 374.00000000000006 110.00000000000003 373.70000000000005 108.80000000000003 373.6000000000001 99.00000000000003 C 373.50000000000006 89.70000000000003 373.80000000000007 87.70000000000003 376.2000000000001 81.50000000000003 C 379.9000000000001 72.10000000000002 386.0000000000001 65.20000000000003 394.3000000000001 61.20000000000003 C 399.8000000000001 58.50000000000003 401.8000000000001 58.00000000000003 408.3000000000001 58.00000000000003 C 417.5000000000001 58.00000000000003 425.40000000000015 61.20000000000003 430.0000000000001 66.80000000000003 C 433.3000000000001 70.80000000000003 432.9000000000001 70.90000000000002 447.5000000000001 65.50000000000003 C 453.0000000000001 63.50000000000003 458.60000000000014 61.50000000000003 460.0000000000001 61.00000000000003 C 461.4000000000001 60.50000000000003 466.3000000000001 58.70000000000003 471.0000000000001 56.90000000000003 C 475.7000000000001 55.200000000000024 481.60000000000014 53.00000000000003 484.2000000000001 52.200000000000024 C 486.8000000000001 51.300000000000026 489.1000000000001 50.10000000000002 489.4000000000001 49.40000000000003 C 490.1000000000001 47.60000000000003 484.9000000000001 40.20000000000003 478.80000000000007 34.10000000000002 C 473.30000000000007 28.600000000000023 463.30000000000007 21.600000000000023 456.00000000000006 18.300000000000022 C 445.6000000000001 13.500000000000021 439.50000000000006 11.200000000000022 433.50000000000006 10.000000000000021 C 430.80000000000007 9.400000000000022 426.70000000000005 8.500000000000021 424.50000000000006 8.000000000000021 C 419.6000000000001 6.900000000000022 392.00000000000006 6.900000000000022 386.50000000000006 8.100000000000021 z M 225.1 10 L 194.6 10.5 L 192.9 16 C 192 19 189.3 26.7 187 33 C 184.7 39.3 182.5 45.8 182 47.5 C 181.5 49.1 179.8 54.3 178 59 C 176.3 63.6 173.4 72 171.5 77.5 C 169.6 83 166 93.3 163.4 100.5 C 160.9 107.6 157.8 116.6 156.5 120.5 C 154.3 127 144.5 155 138.7 171.4 C 137.29999999999998 175.20000000000002 136.39999999999998 179 136.7 179.70000000000002 C 137.1 180.70000000000002 143.5 181.00000000000003 168.1 181.00000000000003 C 203.5 181.00000000000003 199.6 182.30000000000004 202.89999999999998 169.50000000000003 C 203.99999999999997 164.90000000000003 205.7 161.00000000000003 206.7 160.20000000000002 C 209 158.50000000000003 252.29999999999998 158.9 254 160.60000000000002 C 254.6 161.20000000000002 256 165.20000000000002 257 169.40000000000003 C 260.3 182.30000000000004 256.4 181.00000000000003 292 181.00000000000003 C 312 181.00000000000003 323.1 180.60000000000002 323.5 180.00000000000003 C 324.1 179.00000000000003 322.7 174.60000000000002 313.4 148.50000000000003 C 310.9 141.30000000000004 308.4 134.10000000000002 307.9 132.30000000000004 C 307.4 130.50000000000006 306.29999999999995 127.80000000000004 305.5 126.30000000000004 C 304.70000000000005 124.80000000000004 304 123.10000000000004 304 122.60000000000004 C 304 122.00000000000004 301.9 116.00000000000004 299.4 109.10000000000004 C 296.79999999999995 102.20000000000003 293.5 92.90000000000003 291.9 88.50000000000003 C 286.09999999999997 71.80000000000003 278.79999999999995 51.70000000000003 275.7 43.50000000000003 C 274.9 41.300000000000026 273.3 36.60000000000003 272.09999999999997 33.00000000000003 C 265.99999999999994 13.60000000000003 262.99999999999994 8.700000000000028 257.49999999999994 9.200000000000028 C 256.3999999999999 9.400000000000027 241.79999999999995 9.700000000000028 225.09999999999994 10.000000000000028 z M 232.4 69.2 C 232.70000000000002 70.5 233.20000000000002 73.7 233.5 76.4 C 233.9 79.10000000000001 234.5 82.2 235 83.4 C 235.4 84.5 236.5 89.10000000000001 237.5 93.5 C 238.5 97.89999999999999 239.8 103.5 240.5 106 C 243.1 115 243.3 117.8 241.1 118.9 C 238.7 120.2 220.1 120.30000000000001 218.1 119.10000000000001 C 217.2 118.50000000000001 216.9 117.30000000000001 217.4 115.4 C 217.70000000000002 113.80000000000001 218.6 109.10000000000001 219.4 105 C 221.5 94.2 227.1 68.6 227.70000000000002 67.7 C 228.70000000000002 66.10000000000001 232.00000000000003 67.10000000000001 232.4 69.2 z M 616.5 10 L 588.5 10.5 L 588.2 94.4 C 588.1 155.5 588.3000000000001 178.60000000000002 589.1 179.60000000000002 C 590.8000000000001 181.70000000000002 644.2 181.60000000000002 645.9 179.60000000000002 C 647.8 177.3 646.6999999999999 116.50000000000003 644.6 103.60000000000002 C 642 88.00000000000003 644 86.80000000000003 651.5 99.20000000000002 C 654.2 103.80000000000001 658.1 110.00000000000001 660.1 113.00000000000001 C 662.1 116.00000000000001 665 120.80000000000001 666.6 123.70000000000002 C 669.1 128.20000000000002 673.5 135.3 695 170.40000000000003 C 697.5 174.40000000000003 700.1 178.40000000000003 700.9 179.30000000000004 C 702.1 180.80000000000004 705.4 181.00000000000003 729.5 181.00000000000003 C 744.6 181.00000000000003 757.5 180.70000000000002 758.4 180.40000000000003 C 759.8 179.80000000000004 760 171.40000000000003 760 94.90000000000003 L 760 10.000000000000028 L 731.6 10.000000000000028 C 715.9 10.000000000000028 702.9 10.400000000000029 702.6 10.900000000000029 C 702.3000000000001 11.400000000000029 702 23.60000000000003 702 38.10000000000003 C 701.9 64.20000000000003 703.9 93.10000000000002 706.1 97.10000000000002 C 707.3000000000001 99.30000000000003 707.3000000000001 102.70000000000002 706.1 103.40000000000002 C 704 104.70000000000002 701.7 102.30000000000003 696.4 93.10000000000002 C 685 73.50000000000003 682.9 70.00000000000003 668.1 45.00000000000002 C 659.8000000000001 31.00000000000002 651.9 17.600000000000023 650.6 15.300000000000022 C 649.2 13.000000000000021 647.3000000000001 10.800000000000022 646.3000000000001 10.300000000000022 C 645.3000000000001 9.900000000000022 631.9000000000001 9.700000000000022 616.5000000000001 10.000000000000021 z M 11.700000000000045 11.7 C 10.800000000000045 14.7 11.500000000000046 178.39999999999998 12.300000000000045 179.7 C 12.900000000000045 180.7 19.800000000000047 181 41.00000000000004 181 C 62.20000000000004 181 69.10000000000005 180.7 69.70000000000005 179.7 C 70.10000000000005 179.1 70.60000000000005 167.89999999999998 70.60000000000005 154.89999999999998 C 70.70000000000005 141.89999999999998 71.00000000000006 130.7 71.40000000000005 130.09999999999997 C 71.90000000000005 129.39999999999998 77.70000000000005 128.99999999999997 89.70000000000005 128.99999999999997 C 108.40000000000005 128.99999999999997 115.50000000000004 128.19999999999996 126.00000000000004 124.79999999999997 C 140.90000000000003 119.99999999999997 151.20000000000005 109.59999999999997 156.40000000000003 94.19999999999996 C 161.50000000000003 79.19999999999996 160.30000000000004 56.49999999999996 153.60000000000002 42.39999999999996 C 147.20000000000002 28.999999999999964 131.90000000000003 16.29999999999996 118.00000000000003 12.899999999999963 C 115.50000000000003 12.399999999999963 111.70000000000003 11.499999999999963 109.50000000000003 10.999999999999963 C 107.30000000000003 10.499999999999963 84.50000000000003 10.099999999999962 58.800000000000026 9.999999999999963 C 15.200000000000024 9.999999999999963 12.100000000000023 10.099999999999962 11.700000000000024 11.699999999999962 z M 93.40000000000005 57.5 C 98.50000000000004 60.1 101.00000000000004 63.6 101.10000000000005 68.5 C 101.30000000000005 75.1 99.70000000000005 79.1 95.80000000000005 82.3 C 92.80000000000005 84.7 90.70000000000006 85.39999999999999 83.60000000000005 86.3 C 76.30000000000005 87.1 74.80000000000005 87.1 72.70000000000005 85.7 C 70.10000000000005 84 70.20000000000005 85.60000000000001 71.00000000000004 56.2 C 71.00000000000004 54 88.40000000000003 55 93.40000000000003 57.5 z M 510.50000000000006 11.200000000000003 C 510.20000000000005 11.900000000000002 510.1000000000001 50.300000000000004 510.20000000000005 96.5 L 510.50000000000006 180.5 L 570.5 180.5 L 571 96.2 C 571.3 49.900000000000006 571.4 11.5 571.2 11 C 570.6 9.4 511.1 9.7 510.50000000000006 11.2 z M 776.2 95.2 L 776.5 180.5 L 834.1 180.8 L 891.8000000000001 181 L 892.4000000000001 178.8 C 893.2 175.8 893.2 140.20000000000002 892.4000000000001 137.20000000000002 L 891.8000000000001 135.00000000000003 L 865.4000000000001 135.00000000000003 C 845.5000000000001 135.00000000000003 838.9000000000001 134.70000000000002 838.3000000000001 133.80000000000004 C 837.3000000000001 132.00000000000003 837.9000000000001 118.80000000000004 839.1 117.30000000000004 C 839.9 116.50000000000004 846.2 116.20000000000005 861.9 116.20000000000005 C 873.9 116.30000000000004 884.1999999999999 116.00000000000004 884.8 115.60000000000005 C 885.6999999999999 115.10000000000005 886 109.00000000000006 886 94.40000000000005 L 886 74.00000000000006 L 863.1 74.00000000000006 C 844.9 74.00000000000006 840 73.70000000000006 839.1 72.60000000000005 C 837.7 71.00000000000006 837.3000000000001 57.300000000000054 838.6 56.00000000000005 C 839.1 55.50000000000005 850.8000000000001 54.90000000000005 864.5 54.80000000000005 L 889.5 54.50000000000005 L 889.8 32.200000000000045 L 890 10.000000000000046 L 776 10.000000000000046 z M 83.80000000000007 210.5 C 51.100000000000065 216.1 25.50000000000007 235.5 15.300000000000068 262.5 C 10.200000000000069 276.1 9.000000000000068 282.5 9.000000000000068 297.7 C 9.000000000000068 318.2 13.000000000000068 332.2 23.100000000000065 347.59999999999997 C 32.600000000000065 361.79999999999995 51.500000000000064 375.49999999999994 68.50000000000006 380.4 C 71.80000000000005 381.4 75.90000000000006 382.59999999999997 77.50000000000006 383.2 C 79.20000000000006 383.8 89.10000000000005 384.5 99.50000000000006 384.7 C 116.40000000000006 385.2 119.50000000000006 385 127.10000000000005 383.09999999999997 C 131.90000000000006 381.9 137.10000000000005 380.29999999999995 138.60000000000005 379.49999999999994 C 140.20000000000005 378.69999999999993 142.00000000000006 377.99999999999994 142.60000000000005 377.99999999999994 C 145.10000000000005 377.99999999999994 157.20000000000005 371.19999999999993 165.00000000000006 365.3999999999999 C 181.50000000000006 352.99999999999994 191.90000000000006 335.8999999999999 194.90000000000006 315.99999999999994 C 196.90000000000006 303.59999999999997 197.70000000000007 284.99999999999994 196.40000000000006 283.8999999999999 C 195.70000000000007 283.3999999999999 176.70000000000007 283.0999999999999 148.50000000000006 283.19999999999993 L 101.70000000000006 283.49999999999994 L 101.90000000000006 301.99999999999994 C 102.10000000000007 313.99999999999994 102.50000000000006 320.69999999999993 103.20000000000006 321.09999999999997 C 103.80000000000005 321.49999999999994 109.40000000000006 321.79999999999995 115.70000000000006 321.79999999999995 C 127.10000000000007 321.69999999999993 129.00000000000006 322.19999999999993 129.00000000000006 325.49999999999994 C 128.90000000000006 327.19999999999993 124.50000000000006 331.69999999999993 119.90000000000006 334.59999999999997 C 115.70000000000006 337.29999999999995 114.90000000000006 337.49999999999994 104.50000000000006 337.49999999999994 C 94.90000000000006 337.49999999999994 92.90000000000006 337.19999999999993 89.20000000000006 335.19999999999993 C 83.90000000000006 332.3999999999999 78.00000000000006 326.3999999999999 75.60000000000007 321.29999999999995 C 74.50000000000007 319.19999999999993 73.10000000000007 316.29999999999995 72.30000000000007 314.69999999999993 C 70.10000000000007 310.3999999999999 70.20000000000007 292.49999999999994 72.50000000000007 285.69999999999993 C 75.20000000000007 277.69999999999993 80.80000000000007 270.0999999999999 87.10000000000007 265.79999999999995 C 94.20000000000006 260.9 99.30000000000007 259.59999999999997 108.80000000000007 260.19999999999993 C 117.20000000000007 260.69999999999993 119.60000000000007 261.79999999999995 127.20000000000007 268.8999999999999 C 130.90000000000006 272.2999999999999 131.00000000000009 272.2999999999999 135.20000000000007 271.0999999999999 C 137.60000000000008 270.3999999999999 142.90000000000006 268.4999999999999 147.00000000000009 266.8999999999999 C 151.1000000000001 265.29999999999995 161.70000000000007 261.3999999999999 170.50000000000009 258.19999999999993 C 181.20000000000007 254.29999999999993 186.60000000000008 251.89999999999992 186.8000000000001 250.79999999999993 C 187.2000000000001 248.49999999999991 178.2000000000001 237.19999999999993 171.4000000000001 231.69999999999993 C 149.4000000000001 213.79999999999993 114.50000000000009 205.39999999999992 83.8000000000001 210.49999999999994 z M 209.20000000000007 212.2 C 208.30000000000007 213.1 208.00000000000009 233.39999999999998 208.00000000000009 297.6 C 208.00000000000009 373.40000000000003 208.20000000000007 381.8 209.60000000000008 382.40000000000003 C 210.50000000000009 382.70000000000005 223.60000000000008 383.00000000000006 238.9000000000001 383.00000000000006 C 259.1000000000001 383.00000000000006 266.9000000000001 382.70000000000005 267.80000000000007 381.80000000000007 C 269.50000000000006 380.1000000000001 269.50000000000006 213.90000000000006 267.80000000000007 212.20000000000007 C 266.1000000000001 210.50000000000009 210.90000000000006 210.50000000000009 209.20000000000007 212.20000000000007 z M 334.1000000000001 215.6 C 332.9000000000001 218.2 332.00000000000006 220.9 332.00000000000006 221.6 C 332.00000000000006 222.4 331.6000000000001 223.79999999999998 331.00000000000006 224.79999999999998 C 329.90000000000003 226.6 327.40000000000003 233.7 326.00000000000006 238.49999999999997 C 325.20000000000005 241.59999999999997 323.30000000000007 246.89999999999998 321.90000000000003 250.49999999999997 C 321.50000000000006 251.59999999999997 320.00000000000006 255.89999999999998 318.6 260 C 317.2 264.1 314.5 272 312.5 277.5 C 310.5 283 308.5 288.8 308 290.5 C 307.6 292.1 305.1 299.3 302.5 306.5 C 297.2 321.1 292.4 335.1 289 345.5 C 287.8 349.3 286.4 353.4 285.9 354.5 C 284.7 357.4 282 365.2 281.29999999999995 367.5 C 280.99999999999994 368.6 280.19999999999993 370.9 279.4 372.6 C 278.7 374.3 277.9 377.20000000000005 277.79999999999995 379.1 L 277.49999999999994 382.5 L 308.19999999999993 382.8 L 338.8999999999999 383 L 340.49999999999994 380.7 C 341.3999999999999 379.3 342.49999999999994 375.4 343.09999999999997 371.9 C 345.09999999999997 360.4 343.59999999999997 361 369.29999999999995 361 C 385.69999999999993 361 391.99999999999994 361.3 393.09999999999997 362.2 C 394.99999999999994 363.8 397.7 370.9 398.59999999999997 376.8 C 398.99999999999994 379.40000000000003 399.99999999999994 381.5 401.09999999999997 382.1 C 402.2 382.6 414.79999999999995 382.90000000000003 433.2 382.8 L 463.5 382.5 L 463.4 379.5 C 463.29999999999995 377.8 461.59999999999997 372.2 459.7 367 C 457.8 361.8 454.3 352.1 452.09999999999997 345.5 C 449.79999999999995 338.9 447.49999999999994 332.6 447.09999999999997 331.5 C 446.59999999999997 330.4 444.49999999999994 324.8 442.49999999999994 319 C 440.49999999999994 313.2 438.3999999999999 307.6 437.99999999999994 306.5 C 437.09999999999997 304.2 428.79999999999995 281.1 426.99999999999994 276 C 423.19999999999993 264.8 413.69999999999993 238.3 410.99999999999994 231 C 409.29999999999995 226.3 407.49999999999994 221 406.99999999999994 219.2 C 406.59999999999997 217.39999999999998 405.49999999999994 214.89999999999998 404.59999999999997 213.6 L 403.09999999999997 211.2 L 369.59999999999997 211.1 L 336.09999999999997 210.9 z M 374.00000000000006 278.4 C 374.50000000000006 282.59999999999997 375.20000000000005 286.5 375.6000000000001 287.2 C 376.00000000000006 287.8 376.9000000000001 291 377.6000000000001 294.4 C 378.30000000000007 297.79999999999995 379.6000000000001 303.4 380.50000000000006 307 C 381.40000000000003 310.6 382.30000000000007 315.4 382.70000000000005 317.7 L 383.30000000000007 322 L 371.1000000000001 322 C 356.9000000000001 322 357.00000000000006 322.1 358.9000000000001 312.6 C 359.5000000000001 309.20000000000005 360.5000000000001 303.8 361.1000000000001 300.5 C 361.6000000000001 297.2 362.50000000000006 293.6 362.9000000000001 292.5 C 363.80000000000007 290.5 365.30000000000007 283.8 367.1000000000001 274.1 C 368.4000000000001 267 368.9000000000001 266.40000000000003 371.2000000000001 268.8 C 372.6000000000001 270.2 373.4000000000001 272.90000000000003 374.0000000000001 278.40000000000003 z M 473.20000000000005 211.99999999999997 L 471.00000000000006 212.89999999999998 L 471.20000000000005 297.7 L 471.50000000000006 382.5 L 526.8000000000001 382.8 C 564.1 382.90000000000003 582.7 382.7 584.1 382 C 586 381 586 379.9 585.8000000000001 355.2 L 585.5000000000001 329.5 L 559.5000000000001 329 C 545.2000000000002 328.7 533.4000000000001 328.3 533.3000000000001 328.2 C 533.1 328.09999999999997 532.9000000000001 301.8 532.8000000000001 269.7 L 532.5000000000001 211.5 L 504.0000000000001 211.3 C 488.3000000000001 211.20000000000002 474.5000000000001 211.5 473.2000000000001 212 z M 597.1 212.39999999999998 C 595.5 214.29999999999998 595.6 379.79999999999995 597.2 381.7 C 598 382.7 609.7 383 653.6 383 C 686.3000000000001 383 709.1 382.6 709.5 382.1 C 710.3 380.70000000000005 710.5 331.70000000000005 709.7 330.20000000000005 C 709.1 329.30000000000007 702.9000000000001 329.00000000000006 684.5 329.00000000000006 C 671.1 329.00000000000006 659.5 328.70000000000005 658.6 328.40000000000003 C 657.2 327.8 657 321.8 657 270.6 C 657 227.40000000000003 656.7 213.10000000000002 655.8 212.20000000000002 C 653.9 210.3 598.6999999999999 210.50000000000003 597.0999999999999 212.4 z M 721.3000000000001 211.7 C 720.3000000000001 212.1 720.0000000000001 230.1 720.0000000000001 297 C 720.0000000000001 373.4 720.2000000000002 381.8 721.6000000000001 382.4 C 724.1000000000001 383.4 833.4000000000001 383.09999999999997 834.9000000000001 382.09999999999997 C 836.1000000000001 381.29999999999995 836.3000000000001 377.4 836.2 359.99999999999994 C 836.1 348.29999999999995 835.8000000000001 338.3999999999999 835.5 337.99999999999994 C 835.2 337.49999999999994 823.2 337.19999999999993 808.9 337.19999999999993 C 788.1999999999999 337.19999999999993 782.5 336.8999999999999 781.9 335.79999999999995 C 780.5 333.59999999999997 780.9 322.59999999999997 782.4 320.4 C 783.6999999999999 318.59999999999997 785.5 318.5 806.6999999999999 318 L 829.4999999999999 317.5 L 829.7999999999998 297.6 C 829.9999999999999 283.8 829.6999999999998 277.3 828.8999999999999 276.40000000000003 C 827.9999999999999 275.3 823.1999999999998 275.00000000000006 805.3999999999999 275.00000000000006 C 784.2999999999998 275.00000000000006 782.9999999999999 274.90000000000003 781.9999999999999 273.1000000000001 C 780.6999999999999 270.7000000000001 780.6999999999999 261.00000000000006 781.9999999999999 259.00000000000006 C 782.7999999999998 257.80000000000007 787.2999999999998 257.40000000000003 808.6999999999999 257.00000000000006 L 834.4999999999999 256.50000000000006 L 834.7999999999998 235.00000000000006 C 834.9999999999999 215.70000000000005 834.8999999999999 213.40000000000006 833.2999999999998 212.30000000000007 C 831.9999999999999 211.30000000000007 819.2999999999998 211.00000000000006 777.0999999999998 211.10000000000008 C 747.0999999999998 211.10000000000008 721.8999999999997 211.4000000000001 721.2999999999998 211.70000000000007 z M 888 288 C 887.2 288.5 882.7 290.7 878 292.9 C 873.3 295 866.1 298.29999999999995 862 300.2 C 857.9 302.2 853.5 304 852.3 304.4 C 849.5 305.29999999999995 848.5 307.9 850.8 308.7 C 853.6999999999999 309.7 861.0999999999999 313 870.5 317.5 C 887.7 325.7 890.7 327 891.8 327 C 893.6999999999999 327 893.1999999999999 323 891.3 322.4 C 886 320.7 882.5 318 881.9 315 C 881.4 312.5 881.4 301.5 881.9 296.7 C 882 296.3 884.5 294.8 887.5 293.4 C 891.4 291.59999999999997 893 290.29999999999995 893 288.9 C 893 286.9 890.6 286.4 888 288 z M 877.8 306.8 C 878.0999999999999 315.40000000000003 877.3 316.2 870.8 313 C 868.5 311.8 865.1999999999999 310.5 863.5 310.1 C 861.2 309.6 860.5 308.90000000000003 860.5 307.1 C 860.5 305.1 861.6 304.3 867.5 301.90000000000003 C 871.4 300.3 875.2 299.1 876 299.3 C 877.1 299.5 877.6 301.3 877.8 306.8 z M 854.8 326.5 C 851 328.6 849.3 332.3 848.5 340 C 848 345.2 848.1 346.9 849.3 347.8 C 850.4 348.7 856.3 349 871.5999999999999 348.8 C 891.5999999999999 348.5 892.4999999999999 348.40000000000003 892.4999999999999 346.5 C 892.4999999999999 344.7 891.7999999999998 344.6 884.0999999999999 344.5 C 874.6999999999999 344.5 875.5999999999999 345.3 872.5999999999999 334.9 C 871.6999999999999 331.79999999999995 870.0999999999999 328.5 868.9999999999999 327.5 C 866.2999999999998 325.1 858.2999999999998 324.5 854.7999999999998 326.5 z M 867.1999999999999 331.9 C 869.1999999999999 333.79999999999995 870.4999999999999 340.9 869.1999999999999 342.9 C 867.9 344.79999999999995 856.0999999999999 345.2 853.5999999999999 343.5 C 852.0999999999999 342.4 851.8 341.3 852.3 338 C 853.1999999999999 331.4 856.8 328.6 863 329.8 C 864.4 330 866.3 331 867.2 331.90000000000003 z M 875.9999999999999 357.79999999999995 C 871.1999999999999 360.09999999999997 865.9999999999999 366.99999999999994 865.9999999999999 371.09999999999997 C 865.9999999999999 372.79999999999995 860.6999999999999 377.99999999999994 858.9999999999999 377.99999999999994 C 853.1999999999999 377.99999999999994 848.3999999999999 368.3999999999999 852.4999999999999 364.99999999999994 C 854.3999999999999 363.3999999999999 854.4999999999999 359.99999999999994 852.5999999999999 359.99999999999994 C 849.8999999999999 359.99999999999994 847.9999999999999 364.19999999999993 847.9999999999999 370.29999999999995 C 847.9999999999999 375.4 848.3999999999999 376.49999999999994 850.8999999999999 379.09999999999997 C 853.2999999999998 381.4 854.6999999999998 381.99999999999994 858.2999999999998 381.99999999999994 C 863.1999999999998 381.99999999999994 867.4999999999999 379.3999999999999 868.4999999999999 375.69999999999993 C 870.8999999999999 367.5999999999999 876.2999999999998 360.99999999999994 880.4999999999999 360.99999999999994 C 885.2999999999998 360.99999999999994 889.8999999999999 365.8999999999999 889.9999999999999 371.19999999999993 C 889.9999999999999 373.99999999999994 889.2999999999998 375.3999999999999 886.8999999999999 377.3999999999999 C 885.1999999999998 378.7999999999999 883.3999999999999 379.99999999999994 882.8999999999999 379.99999999999994 C 882.3999999999999 379.99999999999994 881.9999999999999 380.8999999999999 881.9999999999999 381.99999999999994 C 881.9999999999999 387.59999999999997 891.5999999999999 381.3999999999999 893.7999999999998 374.49999999999994 C 895.1999999999998 369.79999999999995 892.7999999999998 362.69999999999993 888.8999999999999 359.69999999999993 C 886.0999999999999 357.69999999999993 878.5999999999999 356.49999999999994 875.9999999999999 357.79999999999995 z" stroke-linecap="round" />
</g>
</svg>