<?xml version="1.0" encoding="UTF-8" standalone="no" ?>
<!DOCTYPE svg PUBLIC "-//W3C//DTD SVG 1.1//EN" "http://www.w3.org/Graphics/SVG/1.1/DTD/svg11.dtd">
<svg xmlns="http://www.w3.org/2000/svg" xmlns:xlink="http://www.w3.org/1999/xlink" version="1.1" width="1080" height="1080" viewBox="0 0 1080 1080" xml:space="preserve">
<desc>Created with Fabric.js 5.2.4</desc>
<defs>
</defs>
<g transform="matrix(1 0 0 1 540 540)" id="adcd674c-fd89-4cba-b9f5-3eb8afa829b2"  >
<rect style="stroke: none; stroke-width: 1; stroke-dasharray: none; stroke-linecap: butt; stroke-dashoffset: 0; stroke-linejoin: miter; stroke-miterlimit: 4; fill: rgb(255,255,255); fill-rule: nonzero; opacity: 1; visibility: hidden;" vector-effect="non-scaling-stroke"  x="-540" y="-540" rx="0" ry="0" width="1080" height="1080" />
</g>
<g transform="matrix(1 0 0 1 540 540)" id="cfd19ef2-1a93-4297-9063-460e9772ff8c"  >
</g>
<g transform="matrix(1 0 0 0.95 540 540)"  >
<g style="" vector-effect="non-scaling-stroke"   >
		<g transform="matrix(1 0 0 1 -490 -490)"  >
<rect style="stroke: none; stroke-width: 1; stroke-dasharray: none; stroke-linecap: butt; stroke-dashoffset: 0; stroke-linejoin: miter; stroke-miterlimit: 4; fill: rgb(255,255,255); fill-opacity: 0; fill-rule: nonzero; opacity: 1;" vector-effect="non-scaling-stroke"  x="-50" y="-50" rx="0" ry="0" width="100" height="100" />
</g>
		<g transform="matrix(1 0 0 1 0 0)"  >
<rect style="stroke: none; stroke-width: 1; stroke-dasharray: none; stroke-linecap: butt; stroke-dashoffset: 0; stroke-linejoin: miter; stroke-miterlimit: 4; fill: rgb(255,255,255); fill-rule: nonzero; opacity: 1; visibility: hidden;" vector-effect="non-scaling-stroke"  x="-540" y="-540" rx="0" ry="0" width="1080" height="1080" />
</g>
		<g transform="matrix(3.66 0 0 4.11 0 0)"  >
<rect style="stroke: none; stroke-width: 1; stroke-dasharray: none; stroke-linecap: butt; stroke-dashoffset: 0; stroke-linejoin: miter; stroke-miterlimit: 4; fill: rgb(255,255,255); fill-rule: nonzero; opacity: 1; visibility: hidden;" vector-effect="non-scaling-stroke"  x="-97" y="-75" rx="0" ry="0" width="194" height="150" />
</g>
		<g transform="matrix(0.26 0 0 -0.29 -150.76 -1.19)"  >
<path style="stroke: none; stroke-width: 1; stroke-dasharray: none; stroke-linecap: butt; stroke-dashoffset: 0; stroke-linejoin: miter; stroke-miterlimit: 4; fill: rgb(0,0,0); fill-rule: nonzero; opacity: 1;" vector-effect="non-scaling-stroke"  transform=" translate(-955.02, -1015.04)" d="M 835 2003 C 819 1988 818 1961 822 1736 C 825 1499 827 1482 849 1438 C 863 1407 889 1379 921 1355 C 951 1334 977 1305 986 1285 C 998 1256 1000 1147 1000 642 C 1000 183 1003 31 1012 22 C 1030 4 1068 8 1080 29 C 1094 56 1093 1218 1079 1280 C 1065 1341 1030 1392 978 1427 C 915 1469 911 1488 911 1761 C 910 1930 907 1999 898 2008 C 881 2025 854 2023 835 2003 z" stroke-linecap="round" />
</g>
		<g transform="matrix(0.26 0 0 -0.29 89.63 0)"  >
<path style="stroke: none; stroke-width: 1; stroke-dasharray: none; stroke-linecap: butt; stroke-dashoffset: 0; stroke-linejoin: miter; stroke-miterlimit: 4; fill: rgb(0,0,0); fill-rule: nonzero; opacity: 1;" vector-effect="non-scaling-stroke"  transform=" translate(-1819.3, -1010.93)" d="M 1350 2001 C 1344 1989 1340 1890 1340 1750 C 1340 1485 1336 1469 1269 1424 C 1240 1405 1216 1378 1200 1345 L 1175 1295 L 1175 693 C 1175 101 1175 91 1196 63 C 1218 33 1287 -7 1298 4 C 1301 8 1285 28 1262 49 C 1235 74 1220 96 1220 111 C 1221 132 1222 133 1233 120 C 1254 93 1293 70 1318 70 C 1349 70 1420 140 1420 169 C 1420 187 1489 305 1523 345 C 1528 351 1561 400 1598 454 C 1635 509 1678 563 1693 574 C 1731 602 1817 600 1883 571 C 1910 560 1977 535 2033 516 C 2089 497 2173 468 2220 451 C 2267 434 2313 421 2322 420 C 2345 420 2380 459 2379 484 C 2378 504 2378 504 2373 485 C 2367 461 2341 430 2326 430 C 2320 430 2201 471 2061 520 C 1784 618 1745 625 1690 588 C 1672 575 1604 486 1531 380 C 1462 278 1401 196 1395 198 C 1390 199 1382 212 1378 226 C 1372 250 1368 649 1369 1076 L 1370 1237 L 1434 1302 C 1490 1359 1501 1377 1520 1439 C 1536 1490 1541 1528 1538 1566 C 1533 1629 1533 1629 1604 1529 C 1701 1392 1726 1389 1965 1474 C 2246 1574 2321 1602 2317 1606 C 2313 1610 2006 1505 1876 1456 C 1786 1422 1722 1421 1682 1455 C 1631 1498 1550 1628 1550 1667 C 1550 1687 1554 1699 1560 1695 C 1565 1692 1599 1647 1635 1596 C 1670 1545 1706 1497 1714 1491 C 1746 1464 1766 1469 2080 1580 C 2176 1614 2269 1645 2285 1649 C 2358 1667 2420 1619 2420 1546 C 2420 1493 2393 1452 2199 1200 C 2092 1061 2080 1041 2080 1008 C 2080 987 2112 923 2129 910 C 2137 904 2254 753 2349 626 C 2409 546 2423 521 2423 491 C 2423 440 2397 395 2359 380 C 2317 362 2286 370 2003 468 C 1798 540 1767 548 1740 539 C 1708 527 1671 479 1505 235 C 1457 163 1397 84 1372 58 C 1347 32 1329 8 1333 4 C 1336 1 1356 6 1376 16 C 1406 31 1436 68 1516 185 C 1702 457 1741 510 1758 510 C 1768 510 1879 474 2005 429 C 2132 385 2248 344 2265 339 C 2359 311 2438 359 2460 457 C 2472 507 2455 551 2394 630 C 2169 921 2110 1000 2110 1009 C 2110 1016 2184 1119 2274 1240 C 2365 1360 2443 1468 2449 1479 C 2466 1510 2462 1582 2442 1620 C 2418 1665 2348 1703 2305 1694 C 2289 1691 2159 1647 2018 1598 C 1877 1548 1755 1510 1747 1513 C 1734 1518 1576 1737 1535 1808 C 1524 1825 1513 1840 1510 1840 C 1507 1840 1506 1776 1508 1698 C 1513 1474 1482 1370 1392 1308 C 1368 1292 1345 1267 1339 1253 C 1329 1225 1328 410 1339 275 C 1344 207 1348 194 1367 185 L 1388 174 L 1369 142 C 1343 103 1316 94 1285 114 L 1260 130 L 1260 691 C 1260 1142 1263 1257 1274 1283 C 1281 1302 1309 1332 1337 1352 C 1422 1413 1425 1424 1428 1734 C 1430 1946 1428 2005 1418 2011 C 1395 2026 1361 2021 1350 2001 z M 1384 1483 C 1374 1442 1355 1418 1300 1371 C 1273 1349 1248 1321 1245 1310 C 1242 1299 1235 1290 1230 1290 C 1208 1290 1246 1349 1306 1406 C 1345 1444 1370 1476 1370 1489 C 1370 1500 1375 1510 1380 1510 C 1386 1510 1388 1499 1384 1483 z" stroke-linecap="round" />
</g>
		<g transform="matrix(0.26 0 0 -0.29 -125.54 -216.27)"  >
<path style="stroke: none; stroke-width: 1; stroke-dasharray: none; stroke-linecap: butt; stroke-dashoffset: 0; stroke-linejoin: miter; stroke-miterlimit: 4; fill: rgb(0,0,0); fill-rule: nonzero; opacity: 1;" vector-effect="non-scaling-stroke"  transform=" translate(-1045.8, -1755.55)" d="M 1004 1997 C 1002 1990 1001 1877 1002 1745 L 1005 1505 L 1035 1502 C 1087 1496 1090 1511 1090 1754 C 1089 1876 1084 1982 1079 1992 C 1068 2013 1012 2017 1004 1997 z" stroke-linecap="round" />
</g>
		<g transform="matrix(0.26 0 0 -0.29 -80.92 -216.1)"  >
<path style="stroke: none; stroke-width: 1; stroke-dasharray: none; stroke-linecap: butt; stroke-dashoffset: 0; stroke-linejoin: miter; stroke-miterlimit: 4; fill: rgb(0,0,0); fill-rule: nonzero; opacity: 1;" vector-effect="non-scaling-stroke"  transform=" translate(-1206.14, -1754.95)" d="M 1175 2000 C 1163 1981 1166 1520 1177 1509 C 1183 1503 1200 1500 1216 1502 L 1245 1505 L 1245 1755 L 1245 2005 L 1213 2008 C 1196 2010 1179 2006 1175 2000 z" stroke-linecap="round" />
</g>
		<g transform="matrix(0.26 0 0 -0.29 194.05 -1.19)"  >
<path style="stroke: none; stroke-width: 1; stroke-dasharray: none; stroke-linecap: butt; stroke-dashoffset: 0; stroke-linejoin: miter; stroke-miterlimit: 4; fill: rgb(0,0,0); fill-rule: nonzero; opacity: 1;" vector-effect="non-scaling-stroke"  transform=" translate(-2194.73, -1014.99)" d="M 2203 1307 C 2115 1191 2038 1085 2032 1073 C 2015 1042 2017 984 2036 949 C 2062 898 2361 508 2369 515 C 2372 519 2237 704 2219 720 C 2216 723 2177 772 2133 830 C 2046 943 2024 994 2039 1048 C 2044 1066 2121 1177 2210 1296 C 2299 1414 2370 1513 2368 1515 C 2366 1518 2292 1424 2203 1307 z" stroke-linecap="round" />
</g>
		<g transform="matrix(0.26 0 0 -0.29 -214.18 1.73)"  >
<path style="stroke: none; stroke-width: 1; stroke-dasharray: none; stroke-linecap: butt; stroke-dashoffset: 0; stroke-linejoin: miter; stroke-miterlimit: 4; fill: rgb(0,0,0); fill-rule: nonzero; opacity: 1;" vector-effect="non-scaling-stroke"  transform=" translate(-727.09, -1004.93)" d="M 750 1183 C 666 1157 595 1129 582 1117 C 531 1070 517 1009 544 947 C 568 889 606 868 768 821 C 852 797 922 779 923 781 C 924 783 924 885 922 1008 C 920 1174 916 1230 907 1229 C 900 1228 830 1208 750 1183 z M 880 1155 C 880 1138 829 1114 732 1085 C 698 1075 672 1065 674 1062 C 678 1059 834 1101 877 1117 C 887 1121 888 1105 884 1049 C 880 1007 882 959 888 938 C 897 905 896 900 882 900 C 845 900 654 962 643 977 C 636 986 630 989 630 983 C 630 963 657 950 766 917 C 869 885 875 882 878 855 C 881 833 878 829 866 833 C 857 837 806 851 752 866 C 632 899 604 912 585 950 C 566 986 566 1023 584 1059 C 601 1091 624 1103 740 1141 C 839 1173 880 1177 880 1155 z" stroke-linecap="round" />
</g>
</g>
</g>
</svg>