<?xml version="1.0" encoding="UTF-8" standalone="no" ?>
<!DOCTYPE svg PUBLIC "-//W3C//DTD SVG 1.1//EN" "http://www.w3.org/Graphics/SVG/1.1/DTD/svg11.dtd">
<svg xmlns="http://www.w3.org/2000/svg" xmlns:xlink="http://www.w3.org/1999/xlink" version="1.1" width="1080" height="1080" viewBox="0 0 1080 1080" xml:space="preserve">
<desc>Created with Fabric.js 5.2.4</desc>
<defs>
</defs>
<g transform="matrix(1 0 0 1 540 540)" id="cfd19ef2-1a93-4297-9063-460e9772ff8c"  >
</g>
<g transform="matrix(1 0 0 1 540 540)" id="adcd674c-fd89-4cba-b9f5-3eb8afa829b2"  >
<rect style="stroke: none; stroke-width: 1; stroke-dasharray: none; stroke-linecap: butt; stroke-dashoffset: 0; stroke-linejoin: miter; stroke-miterlimit: 4; fill: rgb(255,255,255); fill-rule: nonzero; opacity: 1; visibility: hidden;" vector-effect="non-scaling-stroke"  x="-540" y="-540" rx="0" ry="0" width="1080" height="1080" />
</g>
<g transform="matrix(25.82 0 0 25.82 540 540)" id="ea70928c-7c17-4d33-afd4-37fe77a8b55a"  >
<path style="stroke: rgb(0,0,0); stroke-width: 0; stroke-dasharray: none; stroke-linecap: butt; stroke-dashoffset: 0; stroke-linejoin: miter; stroke-miterlimit: 4; fill: rgb(0,0,0); fill-rule: nonzero; opacity: 1;" vector-effect="non-scaling-stroke"  transform=" translate(-12, -12)" d="M 12.006 4.295 C 9.336 4.295 6.668 5.079 4.361000000000001 6.648 L 0 6.648 L 1.963 8.783 C 0.13229298380806442 10.450944595573112 -0.4848024281368115 13.072683084787819 0.4097310136168666 15.382085014859815 C 1.3042644553705447 17.69148694493181 3.5264041230837218 19.21346419523774 6.003000000000002 19.213 C 7.514818952979363 19.21431712772232 8.970952004646772 18.64258390498174 10.078 17.613 L 12 19.705 L 13.922 17.615 C 15.028380659727384 18.643492316571923 16.483413239708476 19.214499699383758 17.994 19.212999999999997 C 21.306927607509913 19.213000184051538 23.992895690797504 16.527927423458376 23.994 13.214999999999996 C 23.995875424287014 11.527789616737785 23.285161526258925 9.91824235252701 22.037 8.782999999999998 L 24 6.648 L 19.65 6.648 C 17.396164955051773 5.113718882103803 14.732497656580335 4.293780479002901 12.005999999999993 4.295 z M 12 6.255 C 13.531 6.255 15.063 6.558 16.503999999999998 7.1579999999999995 C 13.943 8.138 12 10.43 12 13.1 C 12 10.429 10.058 8.138 7.496 7.1579999999999995 C 8.923138902339865 6.563186946850434 10.453866883666658 6.256633518973709 12 6.256 z M 6.002 9.157 C 7.452141049222232 9.156999970322504 8.79212665000646 9.93064099326938 9.517197183184733 11.186499976020205 C 10.242267716363004 12.442358958771027 10.242267716363006 13.989641041228962 9.517197183184738 15.245500023979787 C 8.792126650006468 16.50135900673061 7.452141049222239 17.275000029677493 6.002000000000007 17.275 C 3.760276200436809 17.275 1.9429999999999996 15.457723799563189 1.9429999999999996 13.215999999999998 C 1.9429999999999996 10.974276200436808 3.760276200436809 9.156999999999998 6.002 9.156999999999998 z M 17.994 9.159 C 20.234895372438444 9.158171572875254 22.052171572875253 10.974104627561555 22.053 13.215 C 22.05382842712475 15.455895372438444 20.237895372438444 17.273171572875256 17.997 17.274 C 15.756104627561555 17.274828427124746 13.938828427124745 15.458895372438446 13.937999999999999 13.218000000000002 C 13.937171572875252 10.977104627561557 15.753104627561553 9.159828427124745 17.994 9.158999999999999 z M 6.001999999999999 11.089 C 4.826738052360071 11.089 3.8739999999999988 12.041738052360072 3.8739999999999988 13.217 C 3.8739999999999988 14.392261947639929 4.826738052360071 15.345 6.001999999999999 15.345 C 7.177261947639927 15.345 8.129999999999999 14.392261947639929 8.129999999999999 13.217 C 8.129999999999999 12.041738052360072 7.177261947639927 11.089 6.001999999999999 11.089 z M 17.994 11.089 C 16.81873805236007 11.089 15.866 12.041738052360072 15.866 13.217 C 15.866 14.392261947639929 16.81873805236007 15.345 17.994 15.345 C 19.169261947639928 15.345 20.122 14.392261947639929 20.122 13.217 C 20.122 12.041738052360072 19.169261947639928 11.089 17.994 11.089 z" stroke-linecap="round" />
</g>
</svg>